<svg version="1.1" id="Layer_1" xmlns="http://www.w3.org/2000/svg" xmlns:xlink="http://www.w3.org/1999/xlink" x="0px" y="0px"
	 width="100%" viewBox="0 0 1280 559" enable-background="new 0 0 1280 559" xml:space="preserve">
<path fill="#FEFEFE" opacity="1.000000" stroke="none" 
	d="
M780.000000,560.000000 
	C520.000000,560.000000 260.500031,560.000000 1.000035,560.000000 
	C1.000023,373.666687 1.000023,187.333389 1.000012,1.000060 
	C427.666626,1.000040 854.333252,1.000040 1281.000000,1.000020 
	C1281.000000,187.333267 1281.000000,373.666534 1281.000000,559.999878 
	C1114.166626,560.000000 947.333313,560.000000 780.000000,560.000000 
M952.152771,283.495636 
	C948.638977,297.022827 944.848145,310.486481 941.725952,324.103516 
	C940.114990,331.129425 941.487854,338.109497 945.851196,344.092743 
	C953.862061,355.077728 965.084045,356.322815 977.199829,353.670593 
	C992.602051,350.299011 1004.448242,340.980988 1015.208313,330.020447 
	C1016.864075,328.333862 1018.600037,326.725983 1021.017578,324.386108 
	C1021.407349,327.855927 1021.628052,330.116608 1021.919495,332.368134 
	C1023.601501,345.361359 1033.526001,355.015930 1046.607910,354.464172 
	C1054.736694,354.121277 1063.491333,352.747772 1070.699097,349.237610 
	C1098.775879,335.564026 1118.200073,313.914154 1127.072021,283.492096 
	C1127.335205,282.589752 1127.780029,281.740417 1128.388184,280.264587 
	C1129.540771,281.645844 1130.395996,282.573975 1131.143555,283.582001 
	C1136.695923,291.068817 1142.455078,298.416107 1147.695312,306.116241 
	C1152.264038,312.829956 1156.943115,319.627228 1160.285522,326.973572 
	C1163.836060,334.777710 1163.361450,342.992401 1157.355591,349.941315 
	C1153.122681,354.838837 1145.643555,356.121094 1139.982910,353.219208 
	C1134.823975,350.574524 1131.802856,344.499847 1133.137207,338.433990 
	C1133.720459,335.782257 1135.288208,333.347076 1136.411621,330.807739 
	C1127.601074,326.237762 1115.414307,330.522644 1109.914429,340.700775 
	C1103.048218,353.407440 1103.616577,366.222961 1111.889526,377.995026 
	C1132.161377,406.841431 1181.944946,405.540558 1203.341919,375.830627 
	C1217.097534,356.730957 1217.207886,336.228516 1206.651123,316.386292 
	C1199.618774,303.168579 1189.635010,291.482666 1180.632690,279.363434 
	C1173.075806,269.190094 1165.098511,259.362152 1162.036011,246.646698 
	C1158.354248,231.360092 1162.551880,221.225464 1176.324219,213.558594 
	C1171.659790,207.652390 1165.324951,205.646484 1158.433594,205.212250 
	C1136.859863,203.852844 1118.730713,220.552078 1118.130981,242.593781 
	C1117.599854,262.112061 1112.282349,280.008575 1101.174194,296.072998 
	C1096.792358,302.409882 1091.851318,308.344086 1084.078125,310.763580 
	C1076.602295,313.090485 1071.035522,309.196808 1071.701172,301.485992 
	C1072.313110,294.397308 1074.084106,287.406647 1075.381470,280.379669 
	C1078.218018,265.014435 1081.818970,249.742783 1083.684326,234.261398 
	C1085.074341,222.724121 1077.238037,213.530746 1065.831909,211.285568 
	C1055.107788,209.174637 1045.683716,212.308487 1038.171387,220.301804 
	C1037.164917,221.372726 1037.031616,223.811203 1037.334595,225.462173 
	C1038.197754,230.165588 1040.606689,234.830460 1040.436279,239.437546 
	C1039.524170,264.074890 1031.026489,285.945007 1014.310547,304.209412 
	C1011.450989,307.333771 1007.044067,309.596863 1002.922913,310.884155 
	C996.411682,312.917969 991.545959,308.917450 991.918091,302.094543 
	C992.233215,296.316254 993.175781,290.510223 994.466919,284.859558 
	C997.506653,271.556152 1001.204407,258.398499 1004.038818,245.055054 
	C1005.125061,239.941360 1005.343323,234.376831 1004.623230,229.203400 
	C1003.281250,219.562088 995.049255,212.599838 984.598389,211.072968 
	C973.995361,209.523865 960.997131,214.937515 957.133789,222.742218 
	C956.623535,223.773026 957.265930,225.433197 957.521362,226.773895 
	C958.534424,232.092026 961.083984,237.607651 960.369568,242.669785 
	C958.469727,256.131378 955.172058,269.395660 952.152771,283.495636 
M203.792053,342.234833 
	C206.922684,340.347748 210.494888,338.925201 213.081787,336.466095 
	C217.093597,332.652496 221.334641,328.601044 223.834839,323.795288 
	C227.091354,317.535767 224.157333,314.037170 217.085754,314.151245 
	C209.173309,314.278900 207.775177,312.885376 208.006088,304.904205 
	C208.063629,302.915161 208.306335,300.925751 208.562241,298.949219 
	C209.993378,287.895905 211.363297,276.833588 212.923843,265.798340 
	C216.697006,239.116608 220.611664,212.454849 224.371246,185.771225 
	C226.041260,173.918335 227.972916,162.069489 228.867249,150.149887 
	C229.671310,139.433472 224.744659,135.379471 214.132797,137.599152 
	C201.769806,140.185135 189.491135,143.250412 177.313400,146.606705 
	C172.745880,147.865555 168.192139,149.984909 164.291306,152.669739 
	C157.790039,157.144363 158.545563,164.198135 165.583389,167.598816 
	C168.710770,169.109940 172.502426,169.469421 175.303329,171.368271 
	C177.925812,173.146179 181.080933,176.076538 181.445709,178.837448 
	C182.173691,184.347137 181.675888,190.177277 180.736664,195.714325 
	C179.012054,205.881439 178.092865,206.448868 168.484421,202.642303 
	C151.556641,195.936050 135.679581,197.903320 120.187500,206.943008 
	C98.513649,219.589722 84.488815,238.567352 75.396881,261.373352 
	C68.060425,279.776001 64.925697,298.861145 69.535271,318.594177 
	C75.018738,342.068176 94.408569,354.496765 117.926491,349.701477 
	C131.029999,347.029663 142.558899,340.739380 153.890411,334.032410 
	C162.629349,328.859955 162.586166,328.786987 165.354263,338.455200 
	C168.486237,349.394348 173.609146,352.772675 184.633743,349.870850 
	C191.005692,348.193634 197.001663,345.087982 203.792053,342.234833 
M496.871063,378.569397 
	C498.389404,384.301544 499.029816,390.459595 501.569916,395.696106 
	C517.041809,427.592255 542.646790,449.240204 574.539978,462.915222 
	C636.719788,489.576508 698.339844,485.264618 758.504944,455.901672 
	C779.405396,445.701447 797.523193,431.599396 809.677185,411.136749 
	C821.279663,391.602478 817.269653,374.606049 798.381775,362.059143 
	C797.688538,361.598663 796.897095,361.264496 796.267029,360.734131 
	C793.506470,358.410309 791.553589,358.876709 789.350952,361.835327 
	C780.355652,373.918213 769.728760,384.431793 757.677307,393.470276 
	C726.635559,416.751221 691.414978,427.547302 652.890381,428.542938 
	C627.463379,429.200073 602.692871,426.269043 579.194092,415.809845 
	C553.662659,404.445953 534.063538,386.061981 517.947937,363.702789 
	C515.088684,359.735809 512.270325,359.186188 508.216583,360.897919 
	C500.780792,364.037750 497.357025,369.838074 496.871063,378.569397 
M468.245300,307.146179 
	C457.531860,307.146179 446.818420,307.146179 435.313904,307.146179 
	C436.177124,304.412750 436.698151,302.719482 437.245941,301.034973 
	C445.216919,276.522247 453.801636,252.187347 460.965881,227.441193 
	C466.385010,208.722946 469.287964,189.370560 468.680481,169.728958 
	C468.416534,161.194702 465.952332,153.424683 459.602203,147.161728 
	C449.261719,136.963104 424.547272,137.519089 412.378418,154.573013 
	C411.732605,155.478104 411.792725,157.529388 412.376862,158.567139 
	C416.698547,166.244858 417.765717,174.617676 417.799652,183.169693 
	C417.933685,216.925385 409.792450,249.070419 398.991638,280.758636 
	C394.058990,295.230347 389.505585,309.877136 385.763794,324.692932 
	C383.249359,334.648895 384.871155,344.241089 393.724548,351.334076 
	C396.679504,353.701477 399.088440,353.698303 402.716003,352.356995 
	C408.832367,350.095459 415.391083,347.961395 421.800293,347.848419 
	C428.816589,347.724762 435.860718,350.041016 442.916931,351.138275 
	C455.550964,353.102905 468.176849,355.160553 480.860168,356.747559 
	C486.147400,357.409119 490.944611,355.358368 495.017212,351.720184 
	C513.119080,335.549377 503.784271,310.388214 490.519196,300.264801 
	C489.701630,299.640869 487.824921,299.909088 486.648285,300.334961 
	C480.767456,302.463531 474.955902,304.783325 468.245300,307.146179 
M804.006775,246.496536 
	C795.222046,259.340759 789.519104,273.283020 787.558533,288.875183 
	C784.365479,314.269318 794.403992,336.543488 815.340515,347.072174 
	C833.358643,356.133270 852.648682,357.610992 871.764343,351.671570 
	C906.635254,340.836792 927.322937,316.433899 933.747131,280.873657 
	C940.842041,241.601028 919.026794,214.086578 879.308105,211.034592 
	C847.971741,208.626694 823.455383,221.551834 804.006775,246.496536 
M617.403564,350.139313 
	C635.185608,356.740875 652.988525,356.430511 670.668823,349.922699 
	C681.702393,345.861420 691.420166,339.533600 697.393005,329.223297 
	C700.270081,324.256897 701.628601,318.178284 702.610046,312.421814 
	C703.358887,308.029144 700.068115,305.196472 696.044128,303.465057 
	C691.999512,301.724762 690.648438,304.900208 688.350281,307.029053 
	C684.597168,310.505615 680.703003,314.096283 676.256104,316.511505 
	C656.665405,327.151764 636.138611,316.926514 633.811035,294.788422 
	C632.989197,286.972137 634.405640,278.419189 636.861816,270.873688 
	C640.832336,258.675842 647.737732,247.984558 659.851990,241.919510 
	C665.213989,239.235016 670.524963,239.587601 673.364197,242.756775 
	C676.941833,246.750153 676.235352,251.381378 674.691589,255.943268 
	C674.278748,257.163208 673.476379,258.356323 672.567871,259.282196 
	C670.521729,261.367523 671.028137,262.947845 673.032166,264.702576 
	C679.813904,270.640717 692.215027,271.208313 699.559204,265.823853 
	C717.108826,252.957169 713.519104,224.276749 693.132385,215.011230 
	C679.869690,208.983444 666.115845,209.439850 652.544678,213.319000 
	C616.481018,223.627350 589.889587,256.228485 586.557373,293.595825 
	C584.237976,319.605347 594.921570,339.537323 617.403564,350.139313 
M756.956909,210.661301 
	C746.671814,210.144501 737.932983,213.459717 731.353699,221.501587 
	C730.403137,222.663528 730.304810,224.994385 730.615234,226.632111 
	C731.775696,232.755325 734.793945,238.940704 734.305725,244.871490 
	C733.426636,255.552734 730.854736,266.145599 728.386780,276.633423 
	C724.465637,293.296875 719.471680,309.726135 716.056763,326.483704 
	C713.985168,336.649170 718.756653,344.990021 727.585876,350.628998 
	C743.781616,360.972687 762.519897,349.983765 770.216553,339.420624 
	C770.990112,338.358978 770.344055,335.635437 769.522766,334.141815 
	C764.515869,325.036530 762.720154,315.313385 764.364502,305.187347 
	C765.775208,296.500244 768.200989,287.983307 769.904480,279.337250 
	C772.730591,264.993011 776.232666,250.700989 777.778137,236.208694 
	C779.250916,222.399399 771.375671,213.595078 756.956909,210.661301 
M564.071228,301.928589 
	C566.104370,293.006836 568.389282,284.133331 570.111633,275.151947 
	C572.675903,261.780182 575.242065,248.382385 576.938416,234.886459 
	C577.454590,230.780121 576.027466,225.784714 573.912476,222.102982 
	C564.244080,205.272415 540.330872,208.190659 529.937195,222.252899 
	C529.205200,223.243240 529.258606,225.531693 529.895142,226.699631 
	C534.084229,234.385696 534.996216,242.626740 533.363464,250.927505 
	C531.119141,262.337341 528.179443,273.614807 525.380127,284.909912 
	C522.060364,298.304535 517.957336,311.538239 515.336426,325.063141 
	C512.850708,337.890564 520.253357,348.599304 532.264221,353.370361 
	C543.874023,357.982147 561.435669,350.717987 569.546997,339.412140 
	C570.210144,338.487823 570.289185,336.386261 569.688110,335.429810 
	C563.319336,325.296021 561.949463,314.352875 564.071228,301.928589 
M362.894409,269.374329 
	C369.464752,263.213654 374.464203,256.031616 376.668640,247.205032 
	C383.021484,221.768433 371.789734,203.964676 348.179321,199.953445 
	C339.009430,198.395554 329.209290,198.439407 319.972992,199.731674 
	C269.883087,206.739883 234.985245,249.424332 237.425156,299.882751 
	C238.688034,325.999268 255.522491,345.294983 281.046143,349.639740 
	C303.128510,353.398743 323.871185,349.059998 342.999115,337.848206 
	C350.500183,333.451508 357.652771,328.026337 363.808990,321.907410 
	C368.672852,317.073059 367.402740,310.967438 362.571106,306.387817 
	C358.390747,302.425507 355.244507,302.841461 348.851532,307.161499 
	C342.123932,311.707672 335.511230,316.857208 328.085052,319.847473 
	C311.844208,326.386993 293.040741,322.472900 289.686493,298.191803 
	C289.153351,294.332184 290.304535,292.873138 294.070557,293.178406 
	C295.228149,293.272278 296.402313,293.208282 297.566803,293.163513 
	C321.632416,292.238251 343.944733,286.419952 362.894409,269.374329 
M589.354431,151.128830 
	C585.069092,145.488739 579.692566,141.534882 572.526733,140.494690 
	C551.744568,137.478043 535.274170,159.281631 542.642822,180.021744 
	C549.118469,198.248520 570.021118,203.519760 584.330994,190.534714 
	C595.085022,180.776291 597.225708,165.349472 589.354431,151.128830 
M793.535583,158.934845 
	C788.402954,144.320251 775.747131,136.985764 761.927490,141.237991 
	C750.538879,144.742188 744.256226,153.197739 741.986572,164.651138 
	C739.540161,176.995911 745.489319,189.574036 756.118713,195.085663 
	C766.020752,200.220123 778.349731,197.955643 786.598816,188.938400 
	C794.208984,180.619537 796.385986,170.678299 793.535583,158.934845 
z"/>
<path fill="#4D5055" opacity="1.000000" stroke="none" 
	d="
M952.291504,283.117035 
	C955.172058,269.395660 958.469727,256.131378 960.369568,242.669785 
	C961.083984,237.607651 958.534424,232.092026 957.521362,226.773895 
	C957.265930,225.433197 956.623535,223.773026 957.133789,222.742218 
	C960.997131,214.937515 973.995361,209.523865 984.598389,211.072968 
	C995.049255,212.599838 1003.281250,219.562088 1004.623230,229.203400 
	C1005.343323,234.376831 1005.125061,239.941360 1004.038818,245.055054 
	C1001.204407,258.398499 997.506653,271.556152 994.466919,284.859558 
	C993.175781,290.510223 992.233215,296.316254 991.918091,302.094543 
	C991.545959,308.917450 996.411682,312.917969 1002.922913,310.884155 
	C1007.044067,309.596863 1011.450989,307.333771 1014.310547,304.209412 
	C1031.026489,285.945007 1039.524170,264.074890 1040.436279,239.437546 
	C1040.606689,234.830460 1038.197754,230.165588 1037.334595,225.462173 
	C1037.031616,223.811203 1037.164917,221.372726 1038.171387,220.301804 
	C1045.683716,212.308487 1055.107788,209.174637 1065.831909,211.285568 
	C1077.238037,213.530746 1085.074341,222.724121 1083.684326,234.261398 
	C1081.818970,249.742783 1078.218018,265.014435 1075.381470,280.379669 
	C1074.084106,287.406647 1072.313110,294.397308 1071.701172,301.485992 
	C1071.035522,309.196808 1076.602295,313.090485 1084.078125,310.763580 
	C1091.851318,308.344086 1096.792358,302.409882 1101.174194,296.072998 
	C1112.282349,280.008575 1117.599854,262.112061 1118.130981,242.593781 
	C1118.730713,220.552078 1136.859863,203.852844 1158.433594,205.212250 
	C1165.324951,205.646484 1171.659790,207.652390 1176.324219,213.558594 
	C1162.551880,221.225464 1158.354248,231.360092 1162.036011,246.646698 
	C1165.098511,259.362152 1173.075806,269.190094 1180.632690,279.363434 
	C1189.635010,291.482666 1199.618774,303.168579 1206.651123,316.386292 
	C1217.207886,336.228516 1217.097534,356.730957 1203.341919,375.830627 
	C1181.944946,405.540558 1132.161377,406.841431 1111.889526,377.995026 
	C1103.616577,366.222961 1103.048218,353.407440 1109.914429,340.700775 
	C1115.414307,330.522644 1127.601074,326.237762 1136.411621,330.807739 
	C1135.288208,333.347076 1133.720459,335.782257 1133.137207,338.433990 
	C1131.802856,344.499847 1134.823975,350.574524 1139.982910,353.219208 
	C1145.643555,356.121094 1153.122681,354.838837 1157.355591,349.941315 
	C1163.361450,342.992401 1163.836060,334.777710 1160.285522,326.973572 
	C1156.943115,319.627228 1152.264038,312.829956 1147.695312,306.116241 
	C1142.455078,298.416107 1136.695923,291.068817 1131.143555,283.582001 
	C1130.395996,282.573975 1129.540771,281.645844 1128.388184,280.264587 
	C1127.780029,281.740417 1127.335205,282.589752 1127.072021,283.492096 
	C1118.200073,313.914154 1098.775879,335.564026 1070.699097,349.237610 
	C1063.491333,352.747772 1054.736694,354.121277 1046.607910,354.464172 
	C1033.526001,355.015930 1023.601501,345.361359 1021.919495,332.368134 
	C1021.628052,330.116608 1021.407349,327.855927 1021.017578,324.386108 
	C1018.600037,326.725983 1016.864075,328.333862 1015.208313,330.020447 
	C1004.448242,340.980988 992.602051,350.299011 977.199829,353.670593 
	C965.084045,356.322815 953.862061,355.077728 945.851196,344.092743 
	C941.487854,338.109497 940.114990,331.129425 941.725952,324.103516 
	C944.848145,310.486481 948.638977,297.022827 952.291504,283.117035 
z"/>
<path fill="#BF0940" opacity="1.000000" stroke="none" 
	d="
M203.479462,342.430023 
	C197.001663,345.087982 191.005692,348.193634 184.633743,349.870850 
	C173.609146,352.772675 168.486237,349.394348 165.354263,338.455200 
	C162.586166,328.786987 162.629349,328.859955 153.890411,334.032410 
	C142.558899,340.739380 131.029999,347.029663 117.926491,349.701477 
	C94.408569,354.496765 75.018738,342.068176 69.535271,318.594177 
	C64.925697,298.861145 68.060425,279.776001 75.396881,261.373352 
	C84.488815,238.567352 98.513649,219.589722 120.187500,206.943008 
	C135.679581,197.903320 151.556641,195.936050 168.484421,202.642303 
	C178.092865,206.448868 179.012054,205.881439 180.736664,195.714325 
	C181.675888,190.177277 182.173691,184.347137 181.445709,178.837448 
	C181.080933,176.076538 177.925812,173.146179 175.303329,171.368271 
	C172.502426,169.469421 168.710770,169.109940 165.583389,167.598816 
	C158.545563,164.198135 157.790039,157.144363 164.291306,152.669739 
	C168.192139,149.984909 172.745880,147.865555 177.313400,146.606705 
	C189.491135,143.250412 201.769806,140.185135 214.132797,137.599152 
	C224.744659,135.379471 229.671310,139.433472 228.867249,150.149887 
	C227.972916,162.069489 226.041260,173.918335 224.371246,185.771225 
	C220.611664,212.454849 216.697006,239.116608 212.923843,265.798340 
	C211.363297,276.833588 209.993378,287.895905 208.562241,298.949219 
	C208.306335,300.925751 208.063629,302.915161 208.006088,304.904205 
	C207.775177,312.885376 209.173309,314.278900 217.085754,314.151245 
	C224.157333,314.037170 227.091354,317.535767 223.834839,323.795288 
	C221.334641,328.601044 217.093597,332.652496 213.081787,336.466095 
	C210.494888,338.925201 206.922684,340.347748 203.479462,342.430023 
M158.467041,304.813293 
	C158.931885,303.757690 159.412445,302.708679 159.859131,301.645447 
	C163.758728,292.363312 168.452972,283.316132 171.299408,273.721008 
	C173.662994,265.753632 173.656265,257.107605 175.063141,248.823959 
	C176.154404,242.398560 175.531860,236.241974 172.593475,230.569626 
	C170.443634,226.419556 168.374863,221.779175 162.675400,221.021713 
	C153.295074,219.775085 145.504532,222.552017 138.979309,229.482193 
	C131.029572,237.925354 125.302078,247.680481 121.311951,258.464050 
	C115.367775,274.528564 110.330818,290.840668 113.105385,308.292053 
	C114.206085,315.215210 117.297249,321.975189 124.241020,324.235840 
	C131.062561,326.456665 138.527466,325.990082 144.201813,320.211121 
	C148.932877,315.392761 153.424042,310.338806 158.467041,304.813293 
z"/>
<path fill="#C10841" opacity="1.000000" stroke="none" 
	d="
M496.878174,378.114441 
	C497.357025,369.838074 500.780792,364.037750 508.216583,360.897919 
	C512.270325,359.186188 515.088684,359.735809 517.947937,363.702789 
	C534.063538,386.061981 553.662659,404.445953 579.194092,415.809845 
	C602.692871,426.269043 627.463379,429.200073 652.890381,428.542938 
	C691.414978,427.547302 726.635559,416.751221 757.677307,393.470276 
	C769.728760,384.431793 780.355652,373.918213 789.350952,361.835327 
	C791.553589,358.876709 793.506470,358.410309 796.267029,360.734131 
	C796.897095,361.264496 797.688538,361.598663 798.381775,362.059143 
	C817.269653,374.606049 821.279663,391.602478 809.677185,411.136749 
	C797.523193,431.599396 779.405396,445.701447 758.504944,455.901672 
	C698.339844,485.264618 636.719788,489.576508 574.539978,462.915222 
	C542.646790,449.240204 517.041809,427.592255 501.569916,395.696106 
	C499.029816,390.459595 498.389404,384.301544 496.878174,378.114441 
z"/>
<path fill="#4D5055" opacity="1.000000" stroke="none" 
	d="
M468.682617,307.091034 
	C474.955902,304.783325 480.767456,302.463531 486.648285,300.334961 
	C487.824921,299.909088 489.701630,299.640869 490.519196,300.264801 
	C503.784271,310.388214 513.119080,335.549377 495.017212,351.720184 
	C490.944611,355.358368 486.147400,357.409119 480.860168,356.747559 
	C468.176849,355.160553 455.550964,353.102905 442.916931,351.138275 
	C435.860718,350.041016 428.816589,347.724762 421.800293,347.848419 
	C415.391083,347.961395 408.832367,350.095459 402.716003,352.356995 
	C399.088440,353.698303 396.679504,353.701477 393.724548,351.334076 
	C384.871155,344.241089 383.249359,334.648895 385.763794,324.692932 
	C389.505585,309.877136 394.058990,295.230347 398.991638,280.758636 
	C409.792450,249.070419 417.933685,216.925385 417.799652,183.169693 
	C417.765717,174.617676 416.698547,166.244858 412.376862,158.567139 
	C411.792725,157.529388 411.732605,155.478104 412.378418,154.573013 
	C424.547272,137.519089 449.261719,136.963104 459.602203,147.161728 
	C465.952332,153.424683 468.416534,161.194702 468.680481,169.728958 
	C469.287964,189.370560 466.385010,208.722946 460.965881,227.441193 
	C453.801636,252.187347 445.216919,276.522247 437.245941,301.034973 
	C436.698151,302.719482 436.177124,304.412750 435.313904,307.146179 
	C446.818420,307.146179 457.531860,307.146179 468.682617,307.091034 
z"/>
<path fill="#4D5055" opacity="1.000000" stroke="none" 
	d="
M804.218994,246.208771 
	C823.455383,221.551834 847.971741,208.626694 879.308105,211.034592 
	C919.026794,214.086578 940.842041,241.601028 933.747131,280.873657 
	C927.322937,316.433899 906.635254,340.836792 871.764343,351.671570 
	C852.648682,357.610992 833.358643,356.133270 815.340515,347.072174 
	C794.403992,336.543488 784.365479,314.269318 787.558533,288.875183 
	C789.519104,273.283020 795.222046,259.340759 804.218994,246.208771 
M857.318909,242.582138 
	C853.032898,246.707199 847.884399,250.246872 844.615906,255.062576 
	C832.872070,272.365479 829.610291,291.259766 837.329895,311.084473 
	C843.726990,327.512939 859.823547,330.956879 871.889709,318.145874 
	C877.203613,312.503906 881.306213,305.196259 884.239441,297.949005 
	C889.877869,284.017548 890.974915,269.422638 885.728882,254.971573 
	C880.949097,241.804901 870.491394,237.177307 857.318909,242.582138 
z"/>
<path fill="#4E5056" opacity="1.000000" stroke="none" 
	d="
M617.052795,349.987488 
	C594.921570,339.537323 584.237976,319.605347 586.557373,293.595825 
	C589.889587,256.228485 616.481018,223.627350 652.544678,213.319000 
	C666.115845,209.439850 679.869690,208.983444 693.132385,215.011230 
	C713.519104,224.276749 717.108826,252.957169 699.559204,265.823853 
	C692.215027,271.208313 679.813904,270.640717 673.032166,264.702576 
	C671.028137,262.947845 670.521729,261.367523 672.567871,259.282196 
	C673.476379,258.356323 674.278748,257.163208 674.691589,255.943268 
	C676.235352,251.381378 676.941833,246.750153 673.364197,242.756775 
	C670.524963,239.587601 665.213989,239.235016 659.851990,241.919510 
	C647.737732,247.984558 640.832336,258.675842 636.861816,270.873688 
	C634.405640,278.419189 632.989197,286.972137 633.811035,294.788422 
	C636.138611,316.926514 656.665405,327.151764 676.256104,316.511505 
	C680.703003,314.096283 684.597168,310.505615 688.350281,307.029053 
	C690.648438,304.900208 691.999512,301.724762 696.044128,303.465057 
	C700.068115,305.196472 703.358887,308.029144 702.610046,312.421814 
	C701.628601,318.178284 700.270081,324.256897 697.393005,329.223297 
	C691.420166,339.533600 681.702393,345.861420 670.668823,349.922699 
	C652.988525,356.430511 635.185608,356.740875 617.052795,349.987488 
z"/>
<path fill="#4E5056" opacity="1.000000" stroke="none" 
	d="
M757.362427,210.730255 
	C771.375671,213.595078 779.250916,222.399399 777.778137,236.208694 
	C776.232666,250.700989 772.730591,264.993011 769.904480,279.337250 
	C768.200989,287.983307 765.775208,296.500244 764.364502,305.187347 
	C762.720154,315.313385 764.515869,325.036530 769.522766,334.141815 
	C770.344055,335.635437 770.990112,338.358978 770.216553,339.420624 
	C762.519897,349.983765 743.781616,360.972687 727.585876,350.628998 
	C718.756653,344.990021 713.985168,336.649170 716.056763,326.483704 
	C719.471680,309.726135 724.465637,293.296875 728.386780,276.633423 
	C730.854736,266.145599 733.426636,255.552734 734.305725,244.871490 
	C734.793945,238.940704 731.775696,232.755325 730.615234,226.632111 
	C730.304810,224.994385 730.403137,222.663528 731.353699,221.501587 
	C737.932983,213.459717 746.671814,210.144501 757.362427,210.730255 
z"/>
<path fill="#4E5055" opacity="1.000000" stroke="none" 
	d="
M564.002075,302.356689 
	C561.949463,314.352875 563.319336,325.296021 569.688110,335.429810 
	C570.289185,336.386261 570.210144,338.487823 569.546997,339.412140 
	C561.435669,350.717987 543.874023,357.982147 532.264221,353.370361 
	C520.253357,348.599304 512.850708,337.890564 515.336426,325.063141 
	C517.957336,311.538239 522.060364,298.304535 525.380127,284.909912 
	C528.179443,273.614807 531.119141,262.337341 533.363464,250.927505 
	C534.996216,242.626740 534.084229,234.385696 529.895142,226.699631 
	C529.258606,225.531693 529.205200,223.243240 529.937195,222.252899 
	C540.330872,208.190659 564.244080,205.272415 573.912476,222.102982 
	C576.027466,225.784714 577.454590,230.780121 576.938416,234.886459 
	C575.242065,248.382385 572.675903,261.780182 570.111633,275.151947 
	C568.389282,284.133331 566.104370,293.006836 564.002075,302.356689 
z"/>
<path fill="#AC2F54" opacity="1.000000" stroke="none" 
	d="
M362.655151,269.636353 
	C343.944733,286.419952 321.632416,292.238251 297.566803,293.163513 
	C296.402313,293.208282 295.228149,293.272278 294.070557,293.178406 
	C290.304535,292.873138 289.153351,294.332184 289.686493,298.191803 
	C293.040741,322.472900 311.844208,326.386993 328.085052,319.847473 
	C335.511230,316.857208 342.123932,311.707672 348.851532,307.161499 
	C355.244507,302.841461 358.390747,302.425507 362.571106,306.387817 
	C367.402740,310.967438 368.672852,317.073059 363.808990,321.907410 
	C357.652771,328.026337 350.500183,333.451508 342.999115,337.848206 
	C323.871185,349.059998 303.128510,353.398743 281.046143,349.639740 
	C255.522491,345.294983 238.688034,325.999268 237.425156,299.882751 
	C234.985245,249.424332 269.883087,206.739883 319.972992,199.731674 
	C329.209290,198.439407 339.009430,198.395554 348.179321,199.953445 
	C371.789734,203.964676 383.021484,221.768433 376.668640,247.205032 
	C374.464203,256.031616 369.464752,263.213654 362.655151,269.636353 
M270.481781,225.970215 
	C259.907288,235.395889 252.876022,247.258331 247.112976,259.986969 
	C241.888123,271.526978 240.525101,283.962311 240.284042,296.299347 
	C240.149445,303.187012 242.641068,310.229645 244.559937,317.030090 
	C247.605057,327.821991 254.951111,336.014801 264.406158,340.897125 
	C281.791168,349.874329 300.656006,349.964691 319.103699,344.610443 
	C328.463928,341.893707 337.372009,337.141174 345.937714,332.334503 
	C351.571686,329.172882 356.563843,324.609314 361.195953,320.020081 
	C363.852814,317.387848 364.421387,313.471619 361.186920,310.181000 
	C358.063141,307.002991 354.608246,307.339355 351.203949,309.453705 
	C347.144714,311.974915 343.065399,314.518066 339.294647,317.438873 
	C329.355835,325.137482 318.096252,327.199249 306.181702,324.627350 
	C302.344788,323.799072 298.953491,320.541260 295.557068,318.116608 
	C289.263550,313.623688 288.895203,306.223633 287.253540,299.640137 
	C285.648254,293.202301 288.247040,290.030273 295.029297,290.130493 
	C307.105499,290.308929 318.673309,288.058899 330.147461,284.527893 
	C347.553711,279.171326 361.707886,269.760712 370.939056,253.643356 
	C378.637207,240.202606 375.860229,221.100830 364.654877,211.101791 
	C353.886383,201.492569 340.698608,200.107056 327.440277,201.564178 
	C314.555786,202.980209 301.957336,205.990707 290.278412,212.712662 
	C283.523407,216.600601 276.511841,219.817413 270.481781,225.970215 
z"/>
<path fill="#AF3057" opacity="1.000000" stroke="none" 
	d="
M589.533325,151.441895 
	C597.225708,165.349472 595.085022,180.776291 584.330994,190.534714 
	C570.021118,203.519760 549.118469,198.248520 542.642822,180.021744 
	C535.274170,159.281631 551.744568,137.478043 572.526733,140.494690 
	C579.692566,141.534882 585.069092,145.488739 589.533325,151.441895 
M575.033325,144.070740 
	C566.040283,141.172012 559.040405,144.481308 552.457520,150.581375 
	C546.222107,156.359390 543.669067,163.414139 544.146362,171.464447 
	C544.742737,181.523209 549.952026,189.165680 559.311157,192.828506 
	C567.016846,195.844238 574.423889,194.078430 581.036316,188.613205 
	C589.149902,181.907227 591.603760,173.194504 590.576050,163.327057 
	C589.616943,154.118271 583.491455,148.510681 575.033325,144.070740 
z"/>
<path fill="#AF3056" opacity="1.000000" stroke="none" 
	d="
M793.673462,159.319702 
	C796.385986,170.678299 794.208984,180.619537 786.598816,188.938400 
	C778.349731,197.955643 766.020752,200.220123 756.118713,195.085663 
	C745.489319,189.574036 739.540161,176.995911 741.986572,164.651138 
	C744.256226,153.197739 750.538879,144.742188 761.927490,141.237991 
	C775.747131,136.985764 788.402954,144.320251 793.673462,159.319702 
M752.109985,188.510864 
	C753.718323,189.340454 755.477234,189.967941 756.908752,191.034744 
	C763.000610,195.574509 769.303528,195.325912 776.031860,192.569977 
	C789.196594,187.177734 794.820312,171.165863 789.866699,157.938644 
	C787.194763,150.804245 781.555359,145.884903 774.578308,144.238388 
	C766.494385,142.330627 758.825134,144.289093 752.414856,150.833252 
	C745.047974,158.354034 740.669189,174.485397 752.109985,188.510864 
z"/>
<path fill="#AD2C53" opacity="1.000000" stroke="none" 
	d="
M158.244232,305.101257 
	C153.424042,310.338806 148.932877,315.392761 144.201813,320.211121 
	C138.527466,325.990082 131.062561,326.456665 124.241020,324.235840 
	C117.297249,321.975189 114.206085,315.215210 113.105385,308.292053 
	C110.330818,290.840668 115.367775,274.528564 121.311951,258.464050 
	C125.302078,247.680481 131.029572,237.925354 138.979309,229.482193 
	C145.504532,222.552017 153.295074,219.775085 162.675400,221.021713 
	C168.374863,221.779175 170.443634,226.419556 172.593475,230.569626 
	C175.531860,236.241974 176.154404,242.398560 175.063141,248.823959 
	C173.656265,257.107605 173.662994,265.753632 171.299408,273.721008 
	C168.452972,283.316132 163.758728,292.363312 159.859131,301.645447 
	C159.412445,302.708679 158.931885,303.757690 158.244232,305.101257 
M146.403732,314.936432 
	C160.000000,300.733765 166.864410,283.214905 171.013412,264.439667 
	C173.180481,254.633118 174.383148,244.659332 171.544952,234.783463 
	C168.438339,223.973587 159.185989,219.934204 149.309601,225.278748 
	C145.446671,227.369141 141.860992,230.401062 138.925674,233.696014 
	C130.142715,243.554993 124.840286,255.425446 120.762985,267.825897 
	C116.948715,279.426361 114.243484,291.303009 115.093239,303.620972 
	C115.585861,310.762024 117.327248,317.816620 124.561646,321.178406 
	C131.554153,324.427795 137.848404,321.647064 143.574753,317.326843 
	C144.367340,316.728851 145.095779,316.045868 146.403732,314.936432 
z"/>
<path fill="#FBFBFB" opacity="1.000000" stroke="none" 
	d="
M857.668701,242.428589 
	C870.491394,237.177307 880.949097,241.804901 885.728882,254.971573 
	C890.974915,269.422638 889.877869,284.017548 884.239441,297.949005 
	C881.306213,305.196259 877.203613,312.503906 871.889709,318.145874 
	C859.823547,330.956879 843.726990,327.512939 837.329895,311.084473 
	C829.610291,291.259766 832.872070,272.365479 844.615906,255.062576 
	C847.884399,250.246872 853.032898,246.707199 857.668701,242.428589 
z"/>
<path fill="#C1043E" opacity="1.000000" stroke="none" 
	d="
M270.734039,225.719421 
	C276.511841,219.817413 283.523407,216.600601 290.278412,212.712662 
	C301.957336,205.990707 314.555786,202.980209 327.440277,201.564178 
	C340.698608,200.107056 353.886383,201.492569 364.654877,211.101791 
	C375.860229,221.100830 378.637207,240.202606 370.939056,253.643356 
	C361.707886,269.760712 347.553711,279.171326 330.147461,284.527893 
	C318.673309,288.058899 307.105499,290.308929 295.029297,290.130493 
	C288.247040,290.030273 285.648254,293.202301 287.253540,299.640137 
	C288.895203,306.223633 289.263550,313.623688 295.557068,318.116608 
	C298.953491,320.541260 302.344788,323.799072 306.181702,324.627350 
	C318.096252,327.199249 329.355835,325.137482 339.294647,317.438873 
	C343.065399,314.518066 347.144714,311.974915 351.203949,309.453705 
	C354.608246,307.339355 358.063141,307.002991 361.186920,310.181000 
	C364.421387,313.471619 363.852814,317.387848 361.195953,320.020081 
	C356.563843,324.609314 351.571686,329.172882 345.937714,332.334503 
	C337.372009,337.141174 328.463928,341.893707 319.103699,344.610443 
	C300.656006,349.964691 281.791168,349.874329 264.406158,340.897125 
	C254.951111,336.014801 247.605057,327.821991 244.559937,317.030090 
	C242.641068,310.229645 240.149445,303.187012 240.284042,296.299347 
	C240.525101,283.962311 241.888123,271.526978 247.112976,259.986969 
	C252.876022,247.258331 259.907288,235.395889 270.734039,225.719421 
M329.003601,256.417480 
	C334.242004,248.858215 335.698730,240.386612 334.966095,231.413559 
	C334.095642,220.752563 327.825684,216.900269 317.067230,218.883286 
	C308.996063,220.370987 303.812561,225.588791 299.328003,232.105530 
	C291.989777,242.769104 287.280975,254.200394 288.169617,267.315369 
	C288.319000,269.519531 290.335114,273.207764 291.866180,273.414459 
	C297.055115,274.115082 302.686523,274.584625 307.647675,273.262146 
	C316.650726,270.862183 323.436768,264.714081 329.003601,256.417480 
z"/>
<path fill="#C3033E" opacity="1.000000" stroke="none" 
	d="
M575.400513,144.214783 
	C583.491455,148.510681 589.616943,154.118271 590.576050,163.327057 
	C591.603760,173.194504 589.149902,181.907227 581.036316,188.613205 
	C574.423889,194.078430 567.016846,195.844238 559.311157,192.828506 
	C549.952026,189.165680 544.742737,181.523209 544.146362,171.464447 
	C543.669067,163.414139 546.222107,156.359390 552.457520,150.581375 
	C559.040405,144.481308 566.040283,141.172012 575.400513,144.214783 
z"/>
<path fill="#C4023E" opacity="1.000000" stroke="none" 
	d="
M751.820618,188.271606 
	C740.669189,174.485397 745.047974,158.354034 752.414856,150.833252 
	C758.825134,144.289093 766.494385,142.330627 774.578308,144.238388 
	C781.555359,145.884903 787.194763,150.804245 789.866699,157.938644 
	C794.820312,171.165863 789.196594,187.177734 776.031860,192.569977 
	C769.303528,195.325912 763.000610,195.574509 756.908752,191.034744 
	C755.477234,189.967941 753.718323,189.340454 751.820618,188.271606 
z"/>
<path fill="#FEF9FB" opacity="1.000000" stroke="none" 
	d="
M146.128830,315.169312 
	C145.095779,316.045868 144.367340,316.728851 143.574753,317.326843 
	C137.848404,321.647064 131.554153,324.427795 124.561646,321.178406 
	C117.327248,317.816620 115.585861,310.762024 115.093239,303.620972 
	C114.243484,291.303009 116.948715,279.426361 120.762985,267.825897 
	C124.840286,255.425446 130.142715,243.554993 138.925674,233.696014 
	C141.860992,230.401062 145.446671,227.369141 149.309601,225.278748 
	C159.185989,219.934204 168.438339,223.973587 171.544952,234.783463 
	C174.383148,244.659332 173.180481,254.633118 171.013412,264.439667 
	C166.864410,283.214905 160.000000,300.733765 146.128830,315.169312 
z"/>
<path fill="#AE2C54" opacity="1.000000" stroke="none" 
	d="
M328.912048,256.771912 
	C323.436768,264.714081 316.650726,270.862183 307.647675,273.262146 
	C302.686523,274.584625 297.055115,274.115082 291.866180,273.414459 
	C290.335114,273.207764 288.319000,269.519531 288.169617,267.315369 
	C287.280975,254.200394 291.989777,242.769104 299.328003,232.105530 
	C303.812561,225.588791 308.996063,220.370987 317.067230,218.883286 
	C327.825684,216.900269 334.095642,220.752563 334.966095,231.413559 
	C335.698730,240.386612 334.242004,248.858215 328.912048,256.771912 
M315.961121,265.555176 
	C325.895630,257.616333 332.514404,247.998001 332.362549,234.626816 
	C332.233917,223.301712 324.969879,218.229752 314.483185,222.753769 
	C311.516357,224.033661 308.565094,225.978363 306.381622,228.335892 
	C297.172729,238.278915 292.342743,250.402954 290.202332,263.607300 
	C289.256500,269.442261 291.213013,271.502319 297.196350,271.851074 
	C303.984650,272.246826 309.865051,269.661255 315.961121,265.555176 
z"/>
<path fill="#FDF5F8" opacity="1.000000" stroke="none" 
	d="
M315.663605,265.769043 
	C309.865051,269.661255 303.984650,272.246826 297.196350,271.851074 
	C291.213013,271.502319 289.256500,269.442261 290.202332,263.607300 
	C292.342743,250.402954 297.172729,238.278915 306.381622,228.335892 
	C308.565094,225.978363 311.516357,224.033661 314.483185,222.753769 
	C324.969879,218.229752 332.233917,223.301712 332.362549,234.626816 
	C332.514404,247.998001 325.895630,257.616333 315.663605,265.769043 
z"/>
</svg>